<svg id="Ebene_1" data-name="Ebene 1" xmlns="http://www.w3.org/2000/svg" viewBox="0 0 410.66 391.06"><defs><style>.cls-1,.cls-2{fill-rule:evenodd;}.cls-2{fill:#fff;}</style></defs><title>Walter [Konvertiert]</title><path class="cls-1" d="M240.27,67c10,3,52.28-27.82,78.39-19.57.55.18,1.09.36,1.61.57,28.5,13,34.5,61.5,35,83-1,9.5,101-27.5,90,53-22.6,82.64-193.5,89-203,89s-178,.5-204-87c-19.5-75,67.5-57.5,81-55,.5-.5,5.5-77,45-85C191.27,39,223.77,69,240.27,67Z" transform="translate(-35.44 -44.97)"/><path class="cls-1" d="M154.27,296s-57.5-7.5-47-45c59,22,120.5,20.5,120,22S214.27,306,154.27,296Z" transform="translate(-35.44 -44.97)"/><path class="cls-1" d="M219.27,301s-156-23.5-107,135c14.5-29.5,26.4-42.36,89-58,23-2.78,34.43-15,40-23,0,0,8.4,17.3,44,23,38.4,10.3,60,27,86,56,6-28,42-127.5-108-134,3,32-17,29.7-22,30S217,331,219.27,301Z" transform="translate(-35.44 -44.97)"/><path class="cls-2" d="M119.27,131s-20.94,76.3,118,74c142.4,1,118-72.14,118-73,.61-8.9,7.06,65.64-119,63C119,195,119.27,131,119.27,131Z" transform="translate(-35.44 -44.97)"/><path class="cls-2" d="M115.93,371.42s19-42.69,77.48-54.34C181.12,315.85,117,309.15,115.93,371.42Z" transform="translate(-35.44 -44.97)"/><path class="cls-1" d="M257.22,272.08c-.53-1.5,61-1,119.62-24,11.12,37.32-46.25,45.77-46.25,45.77C270.76,304.86,257.74,273.57,257.22,272.08Z" transform="translate(-35.44 -44.97)"/></svg>